<svg width="512" height="512" viewBox="0 0 512 512" fill="none" xmlns="http://www.w3.org/2000/svg">
<path d="M473.3 399.6C462.7 390.2 451.5 381.4 441.6 371.4C422.1 351.9 413.1 327.2 408.2 300.6C403.5 275.1 402.4 249.3 402.3 223.5C402.2 200.6 400.4 177.9 393.9 155.8C378.3 103 343.4 71.4 289.2 61.2C287.8 60.9 286.7 60.6 286 60.1C286 43.8 272.7 30.5 256.4 30.5C240 30.5 226.8 43.8 226.8 60.1C226.8 60.2 226.8 60.3 226.8 60.3C226.2 60.6 225.4 60.9 224.4 61.1C202.9 64.9 183 72.5 165.5 85.7C138.2 106.2 123.4 134.5 116 167.1C111.4 187.2 110.4 207.7 110.3 228.2C110.2 256.4 108.4 284.5 102.1 312.1C95.7 339.7 82.6 363.3 60.7 381.7C52.1 389 43.5 396.2 34.2 404C182.6 404 330.1 404 478.7 404C476.4 402.2 474.8 400.9 473.3 399.6Z" fill="white"/>
<path d="M256.3 482C289.7 482 316.7 454.9 316.7 421.6H195.9C195.9 454.9 222.9 482 256.3 482Z" fill="white"/>
</svg>
