<svg width="284" height="284" viewBox="0 0 284 284" fill="none" xmlns="http://www.w3.org/2000/svg">
<path d="M94.3 181.1C94.3 183 92.9 184.5 91.1 184.5H29.9C28.1 184.5 26.7 183 26.7 181.1V102.1C26.7 100.2 28.1 98.7 29.9 98.7H91C92.8 98.7 94.2 100.2 94.2 102.1V181.1H94.3Z" fill="white"/>
<path d="M94.3 181.1C94.3 183 92.9 184.5 91.1 184.5H29.9C28.1 184.5 26.7 183 26.7 181.1V102.1C26.7 100.2 28.1 98.7 29.9 98.7H91C92.8 98.7 94.2 100.2 94.2 102.1V181.1H94.3Z" stroke="#737C35" stroke-width="0.8948" stroke-miterlimit="10"/>
<path d="M90.6 177.8C90.6 179.5 89.3 180.9 87.7 180.9H33.2C31.6 180.9 30.3 179.5 30.3 177.8V105.3C30.3 103.6 31.6 102.2 33.2 102.2H87.8C89.4 102.2 90.7 103.6 90.7 105.3V177.8H90.6Z" fill="#737C35"/>
<path fill-rule="evenodd" clip-rule="evenodd" d="M58.9 106C58.5 106.1 58.2 106.3 58 106.5C58 107 58 107.3 58 107.5C58 107.6 58 107.8 58 108C58 108.1 58 108.2 58 108.2V108.3C57.5 108.3 55.6 108.4 55.2 108.4C54.8 108.4 53.3 108.7 53.1 108.7C52.8 108.7 52 109 52 109C52 109 51.5 108.5 51.3 108.7C51.1 108.8 50 109.7 50 109.7C50 109.7 47.6 110.2 47.4 110.5C47.2 110.8 46.8 111 46.8 111C46.8 111 46.2 111.4 45.8 111.9C45.4 112.3 44.7 112.6 44.7 112.6C44.7 112.6 44.2 113.2 43.8 113.8C43.4 114.4 43.2 114.2 43.2 114.9C43.1 115.5 43.4 116.5 43.9 117.1C44.5 117.7 46.3 119.3 46.5 119.4C46.7 119.5 49.7 120.6 50.2 120.9C50.7 121.2 52 121.9 52 121.9L52.3 122.9C52.3 122.9 53.6 124.6 53.5 126.1C53.4 127.7 52.4 132.8 52.2 133.6C52 134.5 51.4 135.6 52 135.9C52.6 136.1 53 136.6 53 136.6L52.7 137.5C52.7 137.5 53.1 138.7 53.2 139.9C53.3 141.1 53.3 141.7 53.4 142.1C53.4 142.2 53.4 142.3 53.5 142.4C53.4 143.3 53.2 144.3 53.2 145.1C53.2 146.3 53.8 149.6 53.8 151.6C53.8 153.7 54.1 154.4 54.3 155.6C54.5 156.8 54.7 159.2 54.7 159.2C54.7 159.2 54.7 160.2 54.6 160.8C54.5 161.4 54.5 162.6 55 163.7C55.5 164.8 55.7 165.1 55.6 165.2C55.6 165.3 55.5 165.9 55.5 166.2C55.5 166.5 56.3 167 56.6 167.9C56.9 168.9 57.1 169.4 57.1 169.4C57.1 169.4 57.1 169.6 57.2 169.9C57.4 170.2 57.4 170.4 57.4 170.7C57.4 171.1 57.5 171.5 57.4 171.9C57.3 172.3 57.3 172.5 57.1 172.8C56.9 173.2 56.8 173.6 56.6 174.2C56.5 174.8 56.4 175.4 56.3 175.8C56.2 176.2 56.3 176.5 56.4 176.7C56.6 177 57.8 177 58.7 177.1C59.6 177.2 60.2 176.9 60.4 176.8C60.6 176.7 60.6 175 60.6 174.4C60.7 173.8 60.7 172.7 60.7 172.2C60.7 171.7 60.7 171.5 60.5 171C60.3 170.5 60.2 170.2 60.1 169.7C60 169.1 60 169.2 60 168.5C60 167.8 60 167.7 59.9 167.2C59.8 166.7 59.7 167.1 59.7 166.5C59.7 165.9 59.5 165.1 59.5 165.1C59.5 165.1 60.5 164.5 60.5 164.1C60.5 163.7 60.1 160 60.1 160C60.1 160 60.4 158.1 60.4 156.2C60.4 154.4 60.2 153.4 60.2 153C60.2 152.6 61 149.1 61 149.1C61 149.1 60.8 151.4 61.1 151.9C61.5 152.5 61.5 152.6 61.5 152.6C61.5 152.6 61.1 153.8 61.4 154.6C61.7 155.4 61.7 155.5 61.7 155.8C61.7 156.1 61.6 157.7 61.7 158.6C61.8 159.5 61.8 160.1 62 161C62.2 161.9 62.2 162.6 62.2 162.6C62.2 162.6 61.5 163.6 61.4 164.4C61.4 165.2 61.8 165.4 61.8 165.4C61.8 165.4 61.4 166.9 61.6 167.5C61.8 168.2 61.8 168.3 61.8 168.8C61.8 169.2 61.6 169.7 61.5 170.3C61.4 170.8 61.5 170.8 61.4 171.6C61.3 172.4 61.3 172.9 61.3 173.2C61.3 173.5 61.3 176.5 61.6 177C61.9 177.4 63.5 177.6 64.8 177.4C66.1 177.2 65.9 175.4 65.9 175.4C65.9 175.4 64.3 172.2 64.3 171.3C64.3 170.5 64.1 170.6 64.6 169.7C65.1 168.8 66 165.7 66 165.7L65.8 165.2C65.8 165.2 66.8 164.7 67 163.9C67.1 163.1 67 162 67 161.4C67 160.8 67 154.1 67.2 153.2C67.4 152.3 67.9 150 67.9 149.5C67.9 149.2 67.9 146.6 67.8 144.2C68.1 143.8 68.4 143.2 68.8 142.7C69.4 141.9 69.5 141.6 69.6 141.4C69.7 141.2 69.8 140.4 69.9 139.5L70.7 139.6C70.7 139.6 73.4 136.3 73.4 135.7C73.4 135.1 73.4 132.9 73.3 130.1C73.3 127.4 71.3 121.6 71.3 121.6C71.3 121.6 70.4 118.7 69.8 117.8C69.2 116.9 66 116.8 65.7 116.6C65.6 116.5 65.4 116.4 65.2 116.3C65.2 116.2 65.1 116.2 65.1 116.1C64.8 115.4 63.5 114.4 63.2 114.2L63.1 113.3C63.1 113.3 63.5 112.6 63.5 112.4C63.5 112.3 63.9 112.5 64 111.9C64.1 111.3 64.3 110.6 64.1 110.3C63.9 110.1 63.8 109.9 63.8 109.9V109.7C63.8 109.7 64.3 110 64.5 109.7C64.7 109.4 64.8 108.9 64.8 108.9C64.8 108.9 64.2 107.2 63 106.2C61.9 105.4 60.8 105.3 58.9 106ZM67.9 143C67.9 142.7 67.9 142.4 67.8 142.2C68.2 142 68.4 140.9 68.4 140.9C68.4 140.9 68.1 142.5 67.9 143ZM58.9 114.3C58.5 114.6 58.2 115 57.8 115.4C57 115.5 55.2 115.6 54.9 115.5C54.9 115.5 53.5 115.4 52.9 115.4C52.3 115.3 51.9 115.2 51.5 115.1C51.1 115 51 115 50.9 115C50.8 115 50.2 114.9 50.2 114.9C50.2 114.9 51.4 113.9 51.4 113.7C51.4 113.5 51.3 113.2 51.4 113.1C51.5 113 52.2 112.3 52.2 112.3C52.3 112.2 52.5 111.5 52.5 111.5L53.5 110.9C53.5 110.9 53.7 111 54.6 111.1C55.5 111.3 55.7 111.2 56 111.1C56.3 111 56.6 110.9 56.8 110.8C57 110.7 57.1 110.6 57 110.5C56.9 110.4 56.3 110.3 56.3 110.3C56.3 110.3 56.6 110.1 57.3 110C57.8 109.9 58.1 109.8 58.3 109.8C58.3 110.2 58.3 110.4 58.3 110.4C58.3 110.4 58 110.3 57.9 110.7C57.8 111 57.9 111.9 58.1 112.3C58.3 112.7 58.6 112.7 58.6 112.7C58.6 112.7 58.7 113.8 58.9 114.1C59.1 114.4 59.1 114.5 59.1 114.5L58.9 114.3ZM67.7 126.5C67.7 126.5 68.3 129 68.5 129.3C68.7 129.6 68.8 130.2 68.8 130.2C68.8 130.2 68.5 130.7 68.5 131.1C68.5 131.5 68.6 131.7 68.7 132.4C68.8 133.1 68.2 138 68.2 138C68.2 138 68.2 136.6 68.1 135.1C68.1 133.6 67.9 132.6 67.5 131C67.1 129.4 67.7 128 67.7 126.5Z" fill="#F3E4A8"/>
<path d="M106.9 101.4H106.4V127.6C106.4 129.2 106.7 130.3 107.2 130.8C107.8 131.3 109 131.6 111.1 131.7V134.1H98.8V131.7C100.8 131.6 102.1 131.3 102.7 130.8C103.2 130.3 103.5 129.3 103.5 127.6V105.5C103.5 103.9 103.2 102.8 102.7 102.3C102.2 101.8 100.9 101.5 98.8 101.4V99H114.2L122 122.6L129.3 99H144.9V101.4C142.8 101.5 141.5 101.8 141 102.3C140.4 102.8 140.2 103.8 140.2 105.4V127.5C140.2 129.1 140.5 130.2 141 130.6C141.6 131.1 142.9 131.4 144.9 131.5V133.9H127V131.5C129 131.4 130.3 131.1 130.9 130.6C131.4 130.1 131.7 129.1 131.7 127.4V101.2H131.3L121.3 133.9H117.7L106.9 101.4Z" fill="#737C35"/>
<path d="M145.2 134.1V131.7C146.3 131.5 147.1 131 147.8 130.4C148.5 129.7 149.1 128.6 149.8 126.9L160.5 99H166.2L176.7 127.5C177.2 129 177.8 130 178.5 130.6C179.2 131.2 180.1 131.6 181.3 131.8V134.2H164V131.8C165.5 131.7 166.6 131.5 167.2 131.2C167.8 130.9 168.1 130.4 168.1 129.7C168.1 129.4 168 128.9 167.8 128.2C167.8 128.1 167.8 128.1 167.8 128L166 122.4H154.4L153 126.8V127C152.6 128.1 152.4 129 152.4 129.4C152.4 130.1 152.7 130.6 153.2 131C153.7 131.3 154.7 131.6 156.1 131.8V134.2H145.2V134.1ZM155.3 119.8H164.9L160.4 106L155.3 119.8Z" fill="#737C35"/>
<path d="M199 99V101.4C197.3 101.6 196.1 101.9 195.6 102.4C195.1 102.9 194.8 103.9 194.8 105.5V114.7H207V105.5C207 103.9 206.8 102.9 206.3 102.4C205.8 101.9 204.7 101.6 202.9 101.4V99H220V101.4C218.2 101.6 217.1 101.9 216.6 102.4C216.1 102.9 215.8 103.9 215.8 105.5V127.6C215.8 129.2 216.1 130.2 216.6 130.7C217.1 131.2 218.2 131.5 220 131.7V134.1H202.9V131.7C204.7 131.5 205.8 131.2 206.3 130.7C206.8 130.2 207 129.2 207 127.6V117.5H194.9V127.6C194.9 129.2 195.2 130.2 195.7 130.7C196.2 131.2 197.3 131.5 199.1 131.7V134.1H182V131.7C183.8 131.5 184.9 131.2 185.4 130.7C185.9 130.2 186.2 129.2 186.2 127.6V105.5C186.2 103.9 185.9 102.9 185.4 102.4C184.9 101.9 183.8 101.6 182 101.4V99H199Z" fill="#737C35"/>
<path d="M220.8 134.1V131.7C221.9 131.5 222.7 131 223.4 130.4C224.1 129.7 224.7 128.6 225.4 126.9L236.1 99H241.8L252.3 127.5C252.8 129 253.4 130 254.1 130.6C254.8 131.2 255.7 131.6 256.9 131.8V134.2H239.7V131.8C241.2 131.7 242.3 131.5 242.9 131.2C243.5 130.9 243.8 130.4 243.8 129.7C243.8 129.4 243.7 128.9 243.5 128.2C243.5 128.1 243.5 128.1 243.5 128L241.7 122.4H230L228.6 126.8V127C228.2 128.1 228 129 228 129.4C228 130.1 228.3 130.6 228.8 131C229.3 131.3 230.3 131.6 231.7 131.8V134.2H220.8V134.1ZM230.9 119.8H240.5L236 106L230.9 119.8Z" fill="#737C35"/>
<path d="M100.7 184.6L100.1 170.5H102.7C103.9 174.3 105.4 177.2 107.2 179.1C109 181.1 110.9 182.1 113.1 182.1C114.7 182.1 116 181.6 117 180.6C118 179.6 118.5 178.4 118.5 176.8C118.5 175.4 118.1 174.3 117.3 173.4C116.5 172.5 115.1 171.7 113 170.9L108.6 169.2C106.2 168.3 104.4 166.9 103 165C101.7 163.1 101 160.9 101 158.4C101 155.3 101.9 152.7 103.7 150.8C105.5 148.8 107.8 147.9 110.6 147.9C111.2 147.9 111.9 148 112.6 148.1C113.3 148.3 114.1 148.5 115 148.9C115.4 149.1 115.8 149.3 116.2 149.5C116.6 149.7 116.8 149.8 116.8 149.8C116.9 149.8 117 149.8 117.1 149.9C117.3 149.9 117.4 150 117.5 150C117.9 150 118.2 149.8 118.4 149.5C118.7 149.2 118.8 148.7 119 148.1H120.9L121.4 159.3H119.3C118.1 156.4 116.8 154.2 115.4 152.7C114 151.3 112.4 150.5 110.6 150.5C109.1 150.5 107.9 150.9 106.9 151.7C106 152.5 105.5 153.6 105.5 154.9C105.5 156 105.9 157 106.7 157.9C107.5 158.8 108.6 159.5 110.1 160L114.6 161.6C117.4 162.6 119.5 164.1 120.9 166C122.3 167.9 123 170.4 123 173.3C123 176.6 122.1 179.3 120.2 181.5C118.3 183.6 115.9 184.7 113 184.7C112.3 184.7 111.5 184.6 110.8 184.4C110 184.2 109.1 183.9 108 183.5C107.6 183.4 107 183.1 106.1 182.7C105.2 182.3 104.6 182.1 104.2 182.1C103.8 182.1 103.5 182.3 103.2 182.8C102.9 183.2 102.8 183.8 102.7 184.6H100.7Z" fill="#683B0C"/>
<path d="M123.8 183.9V181.5C124.7 181.3 125.4 180.8 126 180.2C126.6 179.5 127.1 178.4 127.7 176.7L136.9 148.8H141.8L150.8 177.3C151.3 178.8 151.8 179.8 152.3 180.4C152.9 181 153.7 181.4 154.7 181.6V184H140V181.6C141.3 181.5 142.2 181.3 142.7 181C143.2 180.7 143.5 180.2 143.5 179.5C143.5 179.2 143.4 178.7 143.2 178C143.2 177.9 143.2 177.8 143.2 177.8L141.7 172.2H131.8L130.6 176.6V176.8C130.3 177.9 130.1 178.8 130.1 179.2C130.1 179.9 130.3 180.4 130.8 180.8C131.3 181.1 132.1 181.4 133.3 181.6V184H123.8V183.9ZM132.4 169.6H140.6L136.7 155.8L132.4 169.6Z" fill="#683B0C"/>
<path d="M158.8 155.2C158.8 153.6 158.6 152.6 158.1 152.1C157.7 151.6 156.7 151.3 155.2 151.1V148.7H169.8V151.1C168.3 151.2 167.4 151.6 166.9 152C166.5 152.5 166.2 153.5 166.2 155.1V177.2C166.2 178.8 166.4 179.8 166.9 180.3C167.3 180.8 168.3 181.1 169.8 181.2V183.6H155.2V181.2C156.7 181 157.7 180.7 158.1 180.2C158.5 179.7 158.8 178.7 158.8 177.1V155.2Z" fill="#683B0C"/>
<path d="M197.7 172.5V155.3C197.7 153.7 197.5 152.6 197 152.1C196.5 151.6 195.4 151.3 193.7 151.2V148.8H204.3V151.2C202.6 151.3 201.4 151.6 201 152.1C200.5 152.6 200.3 153.6 200.3 155.2V184.4H197L178.5 156.6V177.3C178.5 178.9 178.7 180 179.2 180.4C179.7 180.9 180.8 181.2 182.5 181.3V183.7H172V181.3C173.7 181.1 174.8 180.8 175.3 180.4C175.8 179.9 176 178.9 176 177.3V155.2C176 153.6 175.8 152.5 175.3 152.1C174.8 151.6 173.7 151.3 172 151.2V148.8H182L197.7 172.5Z" fill="#683B0C"/>
<path d="M209.6 155.2C209.6 153.6 209.4 152.6 208.9 152.1C208.5 151.6 207.5 151.3 206 151.1V148.7H220.6V151.1C219.1 151.2 218.2 151.6 217.7 152C217.3 152.5 217 153.5 217 155.1V177.2C217 178.8 217.2 179.8 217.7 180.3C218.1 180.8 219.1 181.1 220.6 181.2V183.6H206V181.2C207.5 181 208.5 180.7 208.9 180.2C209.3 179.7 209.6 178.7 209.6 177.1V155.2Z" fill="#683B0C"/>
<path d="M226.9 155.2C226.9 153.6 226.7 152.6 226.2 152.1C225.8 151.6 224.8 151.3 223.3 151.1V148.7H237.8V151.1C236.3 151.3 235.3 151.6 234.9 152.1C234.5 152.6 234.2 153.6 234.2 155.2V165.9L243 156.3C243.6 155.7 244 155.1 244.3 154.5C244.6 153.9 244.8 153.4 244.8 152.9C244.8 152.3 244.5 151.9 243.9 151.6C243.3 151.3 242.5 151.2 241.4 151.2H241.2V148.8H254.8V151.2H254.6C253.6 151.2 252.6 151.5 251.6 152C250.6 152.5 249.6 153.3 248.6 154.3L242.2 161.2L252.6 177.6C253.3 178.6 254 179.5 254.7 180.1C255.4 180.8 256.1 181.2 256.9 181.5V183.9H241.9V181.5C243.2 181.4 244.1 181.3 244.4 181.1C244.7 180.9 244.9 180.6 244.9 180.2C244.9 179.7 244.7 179.2 244.4 178.7V178.6L236.8 166.5L234.4 169V177.5C234.4 179.1 234.6 180.1 235.1 180.6C235.5 181.1 236.5 181.4 238 181.6V184H223.5V181.6C225 181.4 226 181.1 226.4 180.6C226.8 180.1 227.1 179.1 227.1 177.5V155.2H226.9Z" fill="#683B0C"/>
</svg>
