<svg width="512" height="512" viewBox="0 0 512 512" fill="none" xmlns="http://www.w3.org/2000/svg">
<path d="M256 493.5C387.168 493.5 493.5 387.168 493.5 256C493.5 124.832 387.168 18.5 256 18.5C124.832 18.5 18.5 124.832 18.5 256C18.5 387.168 124.832 493.5 256 493.5Z" fill="#F8CC46"/>
<path d="M256 306.9C307.362 306.9 349 265.262 349 213.9C349 162.538 307.362 120.9 256 120.9C204.638 120.9 163 162.538 163 213.9C163 265.262 204.638 306.9 256 306.9Z" fill="#603917"/>
<path d="M256 327.9C183.6 327.9 118.1 357 70.4 404.2C113.9 458.6 180.9 493.5 256 493.5C331.1 493.5 398.1 458.6 441.6 404.2C393.9 357 328.4 327.9 256 327.9Z" fill="#603917"/>
</svg>
