<svg width="512" height="512" viewBox="0 0 512 512" fill="none" xmlns="http://www.w3.org/2000/svg">
<path d="M432.9 228.9C432.9 279.1 414.7 325.1 384.6 360.7C347.2 404.8 291.4 432.8 229 432.8C116.4 432.8 25.1 341.5 25.1 228.9C25.1 116.3 116.4 25 229 25C341.6 25 432.9 116.3 432.9 228.9ZM229 59.9C135.7 59.9 60 135.6 60 228.9C60 322.2 135.7 397.9 229 397.9C322.3 397.9 398 322.2 398 228.9C398 135.6 322.3 59.9 229 59.9Z" fill="#999999"/>
<path d="M384.6 360.6L487 462.5L462.1 487L360 385.2L384.6 360.6Z" fill="#999999"/>
</svg>
