<svg width="512" height="512" viewBox="0 0 512 512" fill="none" xmlns="http://www.w3.org/2000/svg">
<path fill-rule="evenodd" clip-rule="evenodd" d="M467.8 159.5H191.8L169.2 76C161.4 47.1 131.9 24.5 102 24.5H44.2C33.7 24.6 25.1 33.1 25 43.7C25 54.3 33.6 63 44.2 63.1H102C114.4 63.1 128.8 74.1 132 86.1L210.9 376.8C213 384.5 219.7 390.1 227.5 390.9C228.1 391 228.8 391 229.4 391H409.6C418.1 391 425.6 385.4 428 377.3L486.1 184.4C486.7 182.6 486.9 180.7 486.9 178.8C487 168.2 478.4 159.5 467.8 159.5Z" fill="#567334"/>
<path fill-rule="evenodd" clip-rule="evenodd" d="M390.6 410.3C369.3 410.3 352.1 427.7 352.1 449C352.1 470.3 369.5 487.5 390.8 487.5C412.1 487.4 429.3 470.2 429.3 448.9V448.8C429.2 427.5 411.9 410.3 390.6 410.3Z" fill="#567334"/>
<path fill-rule="evenodd" clip-rule="evenodd" d="M255.8 410.3C234.5 410.4 217.3 427.7 217.3 449C217.4 470.3 234.7 487.5 256 487.5C277.3 487.4 294.5 470.2 294.5 448.9V448.8C294.5 427.5 277.1 410.3 255.8 410.3Z" fill="#567334"/>
</svg>
