<svg width="512" height="512" viewBox="0 0 512 512" fill="none" xmlns="http://www.w3.org/2000/svg">
<path fill-rule="evenodd" clip-rule="evenodd" d="M482.2 262.2L270.2 29.7C262.9 21.7 249.1 21.7 241.8 29.7L29.9 262.2C22.7 270.1 23.2 282.3 31.1 289.6L31.2 289.7C39 296.8 51.2 296.3 58.3 288.4L63.4 282.8V449.6C63.4 470.9 80.6 488.3 101.9 488.3H179C189.7 488.3 198.4 479.6 198.4 468.9C198.4 468.2 198.4 467.6 198.3 466.9V333.3L314.5 332.7V463.7C314 465.4 313.8 467.1 313.8 468.9C313.8 479.6 322.5 488.3 333.2 488.3H410.3C431.6 488.2 448.9 470.9 448.8 449.6V282.8L453.9 288.4C457.5 292.4 462.7 294.7 468.1 294.7C472.9 294.7 477.6 292.9 481.1 289.6C488.8 282.3 489.3 270.1 482.2 262.2Z" fill="#567334"/>
</svg>
