<svg width="512" height="512" viewBox="0 0 512 512" fill="none" xmlns="http://www.w3.org/2000/svg">
<path fill-rule="evenodd" clip-rule="evenodd" d="M198.2 24.4H63.1C41.8 24.4 24.5 41.7 24.5 63V198.1C24.5 219.4 41.8 236.7 63.1 236.7H198.2C219.5 236.7 236.8 219.4 236.8 198.1V63C236.7 41.7 219.5 24.5 198.2 24.4Z" fill="#567334"/>
<path fill-rule="evenodd" clip-rule="evenodd" d="M313.9 236.7H448.9C470.2 236.7 487.5 219.4 487.5 198.1V63C487.5 41.7 470.2 24.4 448.9 24.4H313.9C292.6 24.4 275.3 41.7 275.3 63V198.1C275.3 219.4 292.6 236.7 313.9 236.7Z" fill="#567334"/>
<path fill-rule="evenodd" clip-rule="evenodd" d="M198.2 275.3H63.1C41.8 275.3 24.5 292.6 24.5 313.9V449C24.5 470.3 41.8 487.6 63.1 487.6H198.2C219.5 487.6 236.8 470.3 236.8 449V313.9C236.7 292.6 219.5 275.3 198.2 275.3Z" fill="#567334"/>
<path fill-rule="evenodd" clip-rule="evenodd" d="M448.9 275.3H313.9C292.6 275.3 275.3 292.6 275.3 313.9V449C275.3 470.3 292.6 487.6 313.9 487.6H448.9C470.2 487.6 487.5 470.3 487.5 449V313.9C487.5 292.6 470.2 275.3 448.9 275.3Z" fill="#567334"/>
</svg>
