<svg width="512" height="512" viewBox="0 0 512 512" fill="none" xmlns="http://www.w3.org/2000/svg">
<path fill-rule="evenodd" clip-rule="evenodd" d="M198.155 236.703H63.074C52.8436 236.692 43.0353 232.624 35.8016 225.389C28.5679 218.155 24.4998 208.346 24.49 198.116V63.041C24.5003 52.8103 28.5685 43.0015 35.8019 35.7666C43.0353 28.5316 52.8433 24.4615 63.074 24.449H198.155C208.386 24.4612 218.194 28.5313 225.427 35.7663C232.661 43.0013 236.729 52.8103 236.739 63.041V198.116C236.729 208.346 232.661 218.155 225.428 225.39C218.194 232.624 208.385 236.693 198.155 236.703ZM63.074 63.041V198.116H198.097L198.155 63.041H63.074ZM448.912 236.701H313.868C303.638 236.69 293.829 232.621 286.596 225.387C279.362 218.153 275.295 208.344 275.285 198.114V63.041C275.294 52.81 279.362 43.0005 286.595 35.7651C293.829 28.5296 303.637 24.4592 313.868 24.447H448.912C459.143 24.4595 468.951 28.5299 476.185 35.7653C483.418 43.0007 487.486 52.81 487.496 63.041V198.116C487.486 208.346 483.418 218.155 476.184 225.389C468.951 232.624 459.142 236.692 448.912 236.703V236.701ZM313.868 63.041V198.116H448.855L448.912 63.041H313.868ZM198.155 487.552H63.074C52.843 487.54 43.0347 483.469 35.8012 476.234C28.5677 468.998 24.4998 459.189 24.49 448.958V313.885C24.4998 303.653 28.5675 293.844 35.8008 286.607C43.0342 279.371 52.8424 275.299 63.074 275.285H198.155C208.387 275.299 218.195 279.37 225.428 286.607C232.662 293.843 236.729 303.653 236.739 313.885V448.958C236.729 459.189 232.662 468.999 225.428 476.234C218.195 483.469 208.386 487.54 198.155 487.552ZM63.074 313.885V448.958H198.097L198.155 313.885H63.074ZM448.912 487.552H313.868C303.637 487.54 293.829 483.469 286.595 476.234C279.362 468.999 275.294 459.189 275.285 448.958V313.885C275.295 303.654 279.362 293.844 286.595 286.607C293.828 279.371 303.637 275.299 313.868 275.285H448.912C459.144 275.299 468.952 279.371 476.185 286.607C483.419 293.844 487.486 303.653 487.496 313.885V448.958C487.486 459.189 483.418 468.998 476.185 476.234C468.951 483.469 459.143 487.54 448.912 487.552ZM313.868 313.885V448.958H448.855L448.912 313.885H313.868Z" fill="#1A1A1A"/>
</svg>
