<svg width="512" height="512" viewBox="0 0 512 512" fill="none" xmlns="http://www.w3.org/2000/svg">
<path fill-rule="evenodd" clip-rule="evenodd" d="M452 78.1C428.6 54 396.4 40.4 362.7 40.5C329.4 40.4 297.5 53.8 274.2 77.4L255.9 93L237.9 77.5C214.5 53.8 182.6 40.5 149.3 40.5C115.6 40.4 83.3999 54 59.9999 78.1C11.1999 127.8 10.8999 208.5 59.1999 258.6L215.2 452.2C226.2 464.7 240.9 471.5 256.1 471.5C271.3 471.5 286 464.7 297 452.2L452.9 258.6C501 208.6 500.8 127.8 452 78.1Z" fill="#567334"/>
</svg>
