<svg width="512" height="512" viewBox="0 0 512 512" fill="none" xmlns="http://www.w3.org/2000/svg">
<path fill-rule="evenodd" clip-rule="evenodd" d="M452 78.1C428.6 54 396.4 40.4 362.7 40.5C329.4 40.4 297.5 53.8 274.2 77.4L255.9 93L237.9 77.5C214.5 53.8 182.6 40.5 149.3 40.5C115.6 40.4 83.4 54 60 78.1C11.2 127.8 10.9 208.5 59.2 258.6L215.2 452.2C226.2 464.7 240.9 471.5 256.1 471.5C271.3 471.5 286 464.7 297 452.2L452.9 258.6C501 208.6 500.8 127.8 452 78.1ZM87.5 105.7C103.7 89 126 79.6 149.2 79.7C172.4 79.7 194.7 89.1 210.9 105.7C211 105.8 211 105.8 211.1 105.9C211.3 106.1 211.6 106.4 211.9 106.6C212 106.7 212.1 106.8 212.1 106.8L212.5 107.1L212.6 107.2L243.3 133.7C246.8 136.7 251.3 138.4 255.9 138.4C261.4 138.4 266.6 136.1 270.2 132L299.7 106.8C300 106.6 300.2 106.3 300.4 106.1C300.6 105.9 300.8 105.8 300.9 105.6C317.1 88.9 339.4 79.5 362.6 79.6C385.8 79.6 408.1 89 424.3 105.6C458.4 140.4 458.4 196.9 424.4 231.8C424.2 232 424 232.3 423.8 232.5C423.6 232.7 423.4 232.9 423.2 233.1C423.1 233.2 423.1 233.3 423 233.3L267.4 426.8C264.3 430.3 260.1 431.9 256 432C251.9 432 247.8 430.4 244.6 426.8L88.8 233.4C88.7 233.3 88.7 233.2 88.6 233.2C88.4 233 88.2 232.8 88 232.6C87.8 232.4 87.6 232.1 87.4 231.9C53.4 197 53.5 140.4 87.5 105.7Z" fill="#1A1A1A"/>
</svg>
